<?xml version="1.0" encoding="UTF-8"?>
<!DOCTYPE svg PUBLIC "-//W3C//DTD SVG 1.1//EN" "http://www.w3.org/Graphics/SVG/1.1/DTD/svg11.dtd">
<!-- Creator: CorelDRAW X6 -->
<svg xmlns="http://www.w3.org/2000/svg" xml:space="preserve" width="0.333335in" height="0.243677in" version="1.1" style="shape-rendering:geometricPrecision; text-rendering:geometricPrecision; image-rendering:optimizeQuality; fill-rule:evenodd; clip-rule:evenodd"
viewBox="0 0 19 14"
 xmlns:xlink="http://www.w3.org/1999/xlink">
 <defs>
  <style type="text/css">
   <![CDATA[
    .fil0 {fill:#159A46}
    .fil2 {fill:#242122}
    .fil6 {fill:#555658}
    .fil7 {fill:#AA1A44}
    .fil5 {fill:#D9EEE6}
    .fil3 {fill:#EDB952}
    .fil1 {fill:#FEF102}
    .fil4 {fill:#FEFEFF}
   ]]>
  </style>
 </defs>
 <g id="Layer_x0020_1">
  <metadata id="CorelCorpID_0Corel-Layer"/>
  <g id="_216300896">
   <path class="fil0" d="M5 7l-5 0c0,1 0,1 0,1 0,1 0,2 0,2 0,0 0,0 0,1 0,0 0,0 0,0 0,0 0,0 0,0 0,0 0,0 0,0l0 0c0,0 0,0 0,0 0,0 0,0 0,0 1,0 0,0 1,-1 0,0 0,0 0,-1 0,0 1,-1 1,-1 1,0 2,1 2,2 1,0 9,0 10,0 1,0 1,-1 2,-1l0 0c0,-1 0,-1 1,-1 0,-1 0,-2 0,-3l-3 0 0 6 -2 0 0 -3 1 0 0 -1 -3 0 0 -6 0 0 0 10 -3 0 0 -3 1 0 0 -1 -1 0z"/>
   <path class="fil1" d="M1 5c0,0 0,1 0,1l4 0 0 -5 4 0 0 0 5 0c0,0 0,0 0,-1 -1,0 -3,0 -5,0 -1,0 -3,0 -4,0 -3,0 -2,0 -3,1 0,0 0,0 -1,1 -1,1 0,1 0,3z"/>
   <path class="fil2" d="M2 10l1 0c0,0 0,0 -1,0l0 0c0,0 0,0 0,0l0 0c-1,0 -1,1 -1,2 1,2 4,1 3,-1 0,-1 -1,-1 -2,-1 0,0 0,0 0,0 0,0 0,0 0,0z"/>
   <path class="fil3" d="M0 8c0,0 0,-1 0,-1l5 0c0,-1 0,-1 -1,-1l-4 0c0,0 0,-1 0,-1 0,0 0,1 0,1 0,1 0,1 0,1 0,0 0,0 0,1 0,0 0,0 0,0z"/>
   <path class="fil2" d="M16 10l0 1 3 0c0,0 0,0 0,0 0,-1 0,0 0,0 0,0 0,-1 0,-2 0,0 0,0 0,0 0,0 -1,0 -1,0 0,0 0,0 0,1z"/>
   <polygon class="fil4" points="12,11 12,8 9,8 9,9 10,9 10,11 "/>
   <path class="fil3" d="M14 1l0 5 3 0 -1 -1 0 0 -2 0c0,-1 0,-4 0,-4l0 0 -1 0c0,0 0,0 0,1z"/>
   <path class="fil2" d="M18 11l-1 0c0,0 0,0 0,0 1,2 -2,1 -1,0 0,0 0,0 0,0l0 0c-1,0 -1,0 -1,0l0 0c-1,3 4,3 3,0 0,0 0,0 0,0z"/>
   <path class="fil5" d="M15 2l0 3c0,0 1,0 1,0l0 0c0,-1 0,-2 -1,-2l-1 -2c0,0 0,0 0,0l0 0c0,0 0,1 0,1z"/>
   <path class="fil6" d="M3 11c-1,0 -1,2 0,2 1,0 1,-2 0,-2z"/>
   <path class="fil6" d="M18 11c0,0 -2,0 -3,0l0 0c0,0 0,0 1,0l0 0c0,0 0,0 0,0 0,1 2,1 1,0 0,0 0,0 0,0l1 0z"/>
   <polygon class="fil2" points="12,11 12,11 12,8 12,8 "/>
   <path class="fil2" d="M16 5c0,0 -1,0 -1,0l0 -3 0 -1c0,0 0,3 0,4l2 0z"/>
   <path class="fil7" d="M15 7c0,0 0,0 1,0 0,0 0,0 1,0 0,0 -1,0 -1,0l0 0z"/>
  </g>
 </g>
</svg>
